<svg xmlns="http://www.w3.org/2000/svg" xmlns:svg="http://www.w3.org/2000/svg" xmlns:xlink="http://www.w3.org/1999/xlink" id="Layer_1" x="0" y="0" version="1.1" viewBox="0 0 32 32" xml:space="preserve" style="enable-background:new 0 0 32 32"><style type="text/css">.st0{fill:none}</style><g><path d="M8.7,18.8c-0.6,0-1.2,0-1.7,0l-0.5,0H11l-0.5,0C9.9,18.8,9.3,18.8,8.7,18.8z" class="st0"/><polygon points="24.2 17.5 22.8 15.3 21.3 17.5 21.7 17.6 21.7 18.7 23.9 18.7 23.9 17.5" class="st0"/><path d="M7.9,17.5c-0.1,0-0.3,0-0.5,0H6.5v1.3l0.5,0c0.6,0,1.2,0,1.7,0s1.2,0,1.7,0l0.5,0v-1.3h-0.8c-0.3,0-0.4,0-0.5,0 c0,0,0,0,0,0V11H10c1.2,0,1.4,0.1,1.6,1h1.2l-0.2-2.3H4.8l-0.3,3.6h1.2l0-0.5C5.9,11.1,6,11,7.5,11l0.4,0V17.5 C7.9,17.5,7.9,17.5,7.9,17.5z"/><path d="M15.8,21.1h-1.7v-2.8h0.6c0.7,0,0.7,0,0.7,0.9v0.5h1.2v-4.1h-1.2v0.5c0,0.9,0,0.9-0.7,0.9h-0.6v-2.4h1.6 c1.5,0,1.6,0.4,1.7,1.8h1.2l-0.3-3.2h-7v1.3h0.5c0.2,0,0.4,0,0.5,0c0,0,0,0,0,0v6.4c0,0,0,0,0,0c-0.1,0-0.3,0-0.5,0h-0.5v1.3h7.1 l0.4-2.6h-1.3C17.5,20.7,17.1,21.1,15.8,21.1z"/><path d="M21.7,17.6l-0.5,0l1.5-2.2l1.5,2.2l-0.3,0v1.1h3.6v-1.2h-0.5c-0.6,0-0.6,0-0.7-0.2l-2.4-3.5l1.6-2.3 c0.2-0.2,0.4-0.6,1.1-0.6l0.5,0V9.6l-0.5,0c-0.1,0-0.2,0-0.4,0c0,0,0,0-0.1,0c-0.1,0-0.3,0-0.4,0c0,0,0,0,0,0c0,0-0.1,0-0.1,0 c-0.4,0-0.9,0-1.1,0l-0.5,0l0,1.2l0.5,0c0,0,0,0-0.1,0.1l-1.2,1.7L21.9,11l0.3,0V9.6l-0.5,0c-0.1,0-0.3,0-0.5,0c0,0-0.1,0-0.1,0 c-0.2,0-0.3,0-0.5,0c0,0,0,0,0,0c-0.1,0-0.2,0-0.3,0c-0.3,0-0.9,0-1.2,0l-0.5,0V11h0.5c0.6,0,0.6,0,0.7,0.2l2.1,3.1l-1.8,2.7 L20.1,17c-0.1,0.1-0.2,0.2-0.3,0.3c-0.2,0.2-0.5,0.3-0.8,0.3h-0.5v0.2v1h3.2L21.7,17.6z"/></g></svg>